<?xml version="1.0" encoding="UTF-8" standalone="no"?>
<!-- Created with Inkscape (http://www.inkscape.org/) -->

<svg
   xmlns:dc="http://purl.org/dc/elements/1.1/"
   xmlns:cc="http://creativecommons.org/ns#"
   xmlns:rdf="http://www.w3.org/1999/02/22-rdf-syntax-ns#"
   xmlns:svg="http://www.w3.org/2000/svg"
   xmlns="http://www.w3.org/2000/svg"
   xmlns:sodipodi="http://sodipodi.sourceforge.net/DTD/sodipodi-0.dtd"
   xmlns:inkscape="http://www.inkscape.org/namespaces/inkscape"
   width="150mm"
   height="150mm"
   viewBox="0 0 150 150"
   version="1.1"
   id="svg8"
   inkscape:export-filename="/home/dfitch/circle.png"
   inkscape:export-xdpi="169.33"
   inkscape:export-ydpi="169.33"
   inkscape:version="0.92.4 (5da689c313, 2019-01-14)"
   sodipodi:docname="circle.svg">
  <defs
     id="defs2" />
  <sodipodi:namedview
     id="base"
     pagecolor="#ffffff"
     bordercolor="#666666"
     borderopacity="1.0"
     inkscape:pageopacity="0.0"
     inkscape:pageshadow="2"
     inkscape:zoom="1.4"
     inkscape:cx="-390"
     inkscape:cy="268.57143"
     inkscape:document-units="mm"
     inkscape:current-layer="layer1"
     showgrid="false"
     inkscape:window-width="3840"
     inkscape:window-height="2134"
     inkscape:window-x="0"
     inkscape:window-y="0"
     inkscape:window-maximized="1" />
  <metadata
     id="metadata5">
    <rdf:RDF>
      <cc:Work
         rdf:about="">
        <dc:format>image/svg+xml</dc:format>
        <dc:type
           rdf:resource="http://purl.org/dc/dcmitype/StillImage" />
        <dc:title></dc:title>
      </cc:Work>
    </rdf:RDF>
  </metadata>
  <g
     inkscape:label="Layer 1"
     inkscape:groupmode="layer"
     id="layer1"
     transform="translate(0,-147)">
    <path
       style="fill:#ff0000;fill-opacity:0.95718653;stroke:none;stroke-width:6.66666651;stroke-miterlimit:4;stroke-dasharray:none;stroke-opacity:1"
       d="M 277.85742 13.357422 A 266.42855 266.42855 0 0 0 11.427734 279.78711 A 266.42855 266.42855 0 0 0 277.85742 546.21484 A 266.42855 266.42855 0 0 0 544.28516 279.78711 A 266.42855 266.42855 0 0 0 277.85742 13.357422 z M 277.85742 65.5 A 214.28569 214.28569 0 0 1 492.14258 279.78711 A 214.28569 214.28569 0 0 1 277.85742 494.07227 A 214.28569 214.28569 0 0 1 63.572266 279.78711 A 214.28569 214.28569 0 0 1 277.85742 65.5 z "
       transform="matrix(0.26458333,0,0,0.26458333,0,147)"
       id="path815" />
  </g>
</svg>
